# xmcd CD database file
#
# Track frame offsets:
#	150
#	10787
#	33921
#	45979
#	63767
#	83265
#	101711
#	122881
#	138132
#	151952
#	170536
#	188585
#	202252
#	232937
#
# Disc length: 3393 seconds
#
# Revision: 0
# Processed by: cddbd v1.5.2PL0 Copyright (c) Steve Scherf et al.
# Submitted via: CDex 1.51
#
DISCID=a20d3f0e
DTITLE=Petr Nedved - Za tvymi vicky
DYEAR=1900
DGENRE=Country
TTITLE0=Dal pujdu
TTITLE1=Kluk
TTITLE2=Zenska nikdy nepochopi
TTITLE3=Pisen pro nepocateho syna
TTITLE4=Za tvymi vicky
TTITLE5=Guatemala
TTITLE6=Kdyz pocitam hvezdy
TTITLE7=Zbytecna
TTITLE8=O dobrych znamych
TTITLE9=Pobez za mnou
TTITLE10=Posel k cizim planetam
TTITLE11=Pacifik silenej
TTITLE12=Koruna
TTITLE13=Agentka KGB
EXTD=
EXTT0=
EXTT1=
EXTT2=
EXTT3=
EXTT4=
EXTT5=
EXTT6=
EXTT7=
EXTT8=
EXTT9=
EXTT10=
EXTT11=
EXTT12=
EXTT13=
PLAYORDER=
